<svg width="281" height="73" viewBox="0 0 281 73" fill="none" xmlns="http://www.w3.org/2000/svg">
<path d="M-0.000390612 33.3V0.900002H22.2296C33.3446 0.900002 39.0146 4.77 39.0146 11.745C39.0146 18.855 33.3446 22.59 22.2296 22.59H11.2046V33.3H-0.000390612ZM11.2046 14.85H22.1396C25.6046 14.85 27.3146 13.815 27.3146 11.88C27.3146 9.81 25.6046 8.865 22.1396 8.865H11.2046V14.85ZM43.3297 33.3V0.900002H66.0997C77.1697 0.900002 82.3447 4.545 82.3447 11.295C82.3447 16.65 78.4297 20.025 71.4997 21.24L82.5697 32.4V33.3H69.5647L59.9347 21.735H54.5347V33.3H43.3297ZM54.5347 14.085H66.0097C69.1597 14.085 70.5997 13.185 70.5997 11.43C70.5997 9.63 69.1597 8.82 66.0097 8.82H54.5347V14.085ZM108.564 34.2C94.2992 34.2 85.2092 26.595 85.2092 17.1C85.2092 7.56 94.2992 2.6226e-06 108.564 2.6226e-06C122.829 2.6226e-06 131.919 7.56 131.919 17.1C131.919 26.595 122.829 34.2 108.564 34.2ZM108.564 25.83C115.224 25.83 119.454 22.185 119.454 17.1C119.454 11.925 115.224 8.37 108.564 8.37C101.904 8.37 97.6742 11.925 97.6742 17.1C97.6742 22.14 101.904 25.83 108.564 25.83ZM136.318 33.3V0.900002H151.528L161.923 15.885H163.813L173.983 0.900002H189.058V33.3H178.123L178.393 12.78H177.448L167.098 27H158.053L147.478 12.78H146.443L146.713 33.3H136.318ZM216.802 34.2C202.537 34.2 193.447 26.595 193.447 17.1C193.447 7.56 202.537 2.6226e-06 216.802 2.6226e-06C231.067 2.6226e-06 240.157 7.56 240.157 17.1C240.157 26.595 231.067 34.2 216.802 34.2ZM216.802 25.83C223.462 25.83 227.692 22.185 227.692 17.1C227.692 11.925 223.462 8.37 216.802 8.37C210.142 8.37 205.912 11.925 205.912 17.1C205.912 22.14 210.142 25.83 216.802 25.83ZM261.565 34.2C255.31 34.2 248.155 32.76 243.43 30.555V21.735H244.375C249.37 24.345 256.885 26.1 262.15 26.1C266.47 26.1 268.9 25.38 268.9 24.075C268.9 23.175 268.09 22.545 264.175 21.96L256.885 20.835C246.715 19.305 242.98 15.84 242.98 10.845C242.98 4.23 249.865 2.6226e-06 261.565 2.6226e-06C267.505 2.6226e-06 274.21 1.35 278.845 3.195V11.88H277.9C273.13 9.585 266.245 7.965 261.16 7.965C256.435 7.965 254.635 8.685 254.635 9.9C254.635 10.8 255.445 11.475 258.865 11.97L266.335 13.095C277.405 14.715 280.6 18.045 280.6 22.95C280.6 29.79 273.625 34.2 261.565 34.2Z" fill="#69FA00"/>
<path d="M35.6343 72.3V39.9H50.5743C67.9893 39.9 75.3693 46.74 75.3693 56.1C75.3693 65.595 67.9893 72.3 50.5743 72.3H35.6343ZM42.0243 66.81H50.3493C63.2643 66.81 68.4843 62.895 68.4843 56.1C68.4843 49.62 63.2643 45.345 50.3493 45.345H42.0243V66.81ZM78.1319 72.3V71.625L92.8019 39.9H105.087L119.802 71.625V72.3H113.007L109.317 64.065H88.4369L84.7019 72.3H78.1319ZM90.8219 58.71H106.932L101.037 45.525H96.8069L90.8219 58.71ZM141.103 72.3V39.9H156.043C173.458 39.9 180.838 46.74 180.838 56.1C180.838 65.595 173.458 72.3 156.043 72.3H141.103ZM147.493 66.81H155.818C168.733 66.81 173.953 62.895 173.953 56.1C173.953 49.62 168.733 45.345 155.818 45.345H147.493V66.81ZM195.745 72.3L183.955 40.53V39.9H190.705L200.2 66.36H202L210.685 39.9H220.495L229.315 66.36H231.025L240.205 39.9H246.595V40.53L235.3 72.3H224.995L216.04 46.38H214.915L206.185 72.3H195.745Z" fill="white"/>
</svg>
